<?xml version="1.0"?>
<svg xmlns="http://www.w3.org/2000/svg" xmlns:xlink="http://www.w3.org/1999/xlink" version="1.1" id="Capa_1" x="0px" y="0px" viewBox="0 0 512 512" style="enable-background:new 0 0 512 512;" xml:space="preserve" width="512px" height="512px" class=""><g><g>
	<g>
		<path d="M411.559,355.698c-0.022-5.51-4.495-9.962-9.999-9.962c-0.014,0-0.026,0-0.04,0c-5.522,0.021-9.982,4.516-9.961,10.039    l0.002,0.719c0,5.523,4.478,10,10,10c5.522,0,10-4.477,10-10L411.559,355.698z" data-original="#000000" class="active-path" data-old_color="#000000" fill="#FFFFFF"/>
	</g>
</g><g>
	<g>
		<path d="M132.13,122.411c-1.86-1.86-4.44-2.93-7.07-2.93s-5.2,1.07-7.069,2.93c-1.86,1.87-2.931,4.44-2.931,7.07    c0,2.64,1.07,5.21,2.931,7.08c1.869,1.86,4.439,2.93,7.069,2.93s5.21-1.071,7.07-2.93c1.87-1.86,2.93-4.44,2.93-7.08    C135.06,126.851,134,124.271,132.13,122.411z" data-original="#000000" class="active-path" data-old_color="#000000" fill="#FFFFFF"/>
	</g>
</g><g>
	<g>
		<path d="M438.595,4.335c-1.87-2.672-4.925-4.265-8.187-4.268L347.333,0h-0.008c-4.205,0-7.962,2.631-9.398,6.584l-70.829,194.867    c-3.646-0.252-7.313-0.387-11.004-0.387c-0.013,0-0.03,0-0.043,0c-3.747,0.001-7.46,0.143-11.141,0.406L174.073,6.584    C172.637,2.631,168.88,0,164.675,0c-0.003,0-0.006,0-0.008,0L81.592,0.068c-3.262,0.002-6.316,1.595-8.187,4.268    c-1.869,2.672-2.318,6.088-1.202,9.152l30.588,84.042c1.888,5.189,7.628,7.865,12.816,5.977c5.19-1.889,7.866-7.627,5.977-12.817    L95.877,20.056l61.795-0.05l66.972,184.256c-19.445,4.01-37.569,11.67-53.636,22.218l-23.66-65.004    c-1.889-5.19-7.63-7.864-12.816-5.977c-5.19,1.889-7.866,7.627-5.977,12.817l25.763,70.782    c-32.883,28.536-53.707,70.621-53.694,117.475C100.646,442.289,170.38,512.006,256.091,512c0.011,0,0.032,0,0.043,0    c34.323-0.009,66.861-10.981,94.095-31.729c26.351-20.076,45.938-48.558,55.151-80.201c1.544-5.303-1.503-10.853-6.806-12.397    c-5.301-1.544-10.853,1.502-12.397,6.805c-16.715,57.403-70.192,97.505-130.049,97.521c-0.013,0-0.023,0-0.037,0    c-36.171,0-70.181-14.082-95.765-39.651c-25.593-25.579-39.692-59.595-39.702-95.78c-0.02-74.697,60.734-135.484,135.433-135.504    c0.015,0,0.021,0,0.035,0c59.361,0,112.726,39.664,129.771,96.46c1.587,5.29,7.162,8.291,12.453,6.704    c5.289-1.588,8.29-7.163,6.703-12.453c-8.424-28.066-25.049-53.589-47.272-72.858l82.049-225.429    C440.913,10.423,440.464,7.008,438.595,4.335z M341.053,226.312c-16.465-10.788-34.585-18.244-53.67-22.123l66.946-184.183    l61.795,0.05L341.053,226.312z" data-original="#000000" class="active-path" data-old_color="#000000" fill="#FFFFFF"/>
	</g>
</g><g>
	<g>
		<path d="M362.498,372.032l-17.869-48.537c-0.924-13.406-7.661-26-18.434-34.162l-14.956-11.33    c-8.091-6.129-18.137-9.505-28.286-9.505h-84.514c-15.927,0-31.141,7.608-40.695,20.35l-1.963,2.617    c-6.559,8.747-10.17,19.584-10.17,30.516v59.714c0,17.141,13.944,31.085,31.085,31.085h5.739c6.374,0,12.253-2.148,16.961-5.753    c4.987,4.61,11.649,7.434,18.96,7.434h8.863c6.833,0,13.099-2.467,17.961-6.554c3.508,2.948,7.747,5.054,12.403,5.997    c0.229,15.522,12.92,28.081,28.495,28.081h37.762c18.155,0,33.801-12.328,38.047-29.978l2.37-9.85    C366.67,392.129,366.062,381.712,362.498,372.032z M263.144,394.463c-4.391,0-7.962-3.571-7.962-7.961v-48.225    c0-5.523-4.478-10-10-10c-5.522,0-10,4.477-10,10v48.225c0,4.39-3.571,7.961-7.961,7.961h-8.863c-4.39,0-7.961-3.571-7.961-7.961    v-1.681v-46.543v-1.682c0-5.523-4.478-10-10-10c-5.522,0-10,4.477-10,10v1.682v46.543c0,4.39-3.571,7.96-7.961,7.96h-5.739    c-6.112,0-11.085-4.973-11.085-11.085v-59.714c0-6.633,2.191-13.21,6.171-18.517l1.963-2.617    c5.798-7.732,15.029-12.349,24.694-12.349h84.514c5.815,0,11.572,1.935,16.209,5.447l14.956,11.33    c6.658,5.045,10.634,13.043,10.634,21.397v11.605v21.4v22.626c0,6.705-5.454,12.159-12.159,12.159h-4.665    c-4.39,0-7.961-3.571-7.961-7.961v-48.225c0-5.523-4.478-10-10-10c-5.522,0-10,4.477-10,10v48.225c0,4.39-3.571,7.961-7.961,7.961    H263.144z M344.813,397.48l-2.37,9.851c-2.076,8.629-9.726,14.656-18.602,14.656H286.08c-4.549,0-8.264-3.592-8.484-8.087    c4.644-0.946,8.871-3.05,12.371-5.991c4.862,4.086,11.127,6.554,17.961,6.554h4.665c17.721,0,32.139-14.408,32.158-32.124    C345.979,387.297,346.021,392.466,344.813,397.48z" data-original="#000000" class="active-path" data-old_color="#000000" fill="#FFFFFF"/>
	</g>
</g></g> </svg>
